<?xml version="1.0" encoding="UTF-8" standalone="no"?> <!DOCTYPE svg PUBLIC "-//W3C//DTD SVG 1.1//EN" "http://www.w3.org/Graphics/SVG/1.1/DTD/svg11.dtd"> <svg xmlns="http://www.w3.org/2000/svg" version="1.1" width="128" height="100" viewBox="-64 -50 128 100"><g stroke-width="3"><g stroke="#f6bc68"><circle cx="-28" cy="-12" r="14" fill="#f6bc68" /><path fill="none" d="M -19.99475974,-23.48547467 A 14,14 0 0 0 -41.65782625,-8.92367394 M -47.0,-12.0 L -58.0,-12.0 M -41.43502884254441,-25.435028842544398 L -49.21320343559643,-33.21320343559642 M -28.0,-31.0 L -28.00000000000001,-42.0 " /></g><path stroke="#828487" stroke-width="1.8" fill="#A2A4A7" d="M 10,-10 a 12,12 0 1 1 2.92816105,-23.63726226 a 14.4,14.4 0 0 1 25.92035627,-5.69450347 a 9.75,9.75 0 0 1 10.15148268,5.93176573 a 12,12 0 0 1 -3.7469988,23.4 z " /><path stroke="#828487" fill="#828487" d="M -31,28 a 20,20 0 1 1 4.88026841,-39.3954371 a 24,24 0 0 1 43.20059379,-9.49083912 a 16.25,16.25 0 0 1 16.9191378,9.88627622 a 20,20 0 0 1 -6.244998,39z" /></g></svg>