<?xml version="1.0" encoding="UTF-8" standalone="no"?> <!DOCTYPE svg PUBLIC "-//W3C//DTD SVG 1.1//EN" "http://www.w3.org/Graphics/SVG/1.1/DTD/svg11.dtd"> <svg xmlns="http://www.w3.org/2000/svg" version="1.1" width="128" height="100" viewBox="-64 -50 128 100"><g stroke-width="3"><path stroke="#828487" fill="#828487" d="M -31,22 a 20,20 0 1 1 4.88026841,-39.3954371 a 24,24 0 0 1 43.20059379,-9.49083912 a 16.25,16.25 0 0 1 16.9191378,9.88627622 a 20,20 0 0 1 -6.244998,39z" /><path stroke="#66a1ba" stroke-width="1.5" stroke-linecap="round" fill="none" d="M -13,23 l 0.0,20.0 m -8.66025404,-15.0 l 17.32050808,10.0 m -17.32050808,-0.0 l 17.32050808,-10.0 m -8.66025404,-5.0 m 2.88675135,1.66666667 l -2.88675135,1.66666667 l -2.88675135,-1.66666667 m 2.88675135,-1.66666667 m -8.66025404,5.0 m 2.88675135,-1.66666667 l -0.0,3.33333333 l -2.88675135,1.66666667 m 0.0,-3.33333333 m -0.0,10.0 m 0.0,-3.33333333 l 2.88675135,1.66666667 l 0.0,3.33333333 m -2.88675135,-1.66666667 m 8.66025404,5.0 m -2.88675135,-1.66666667 l 2.88675135,-1.66666667 l 2.88675135,1.66666667 m -2.88675135,1.66666667 m 8.66025404,-5.0 m -2.88675135,1.66666667 l 0.0,-3.33333333 l 2.88675135,-1.66666667 m -0.0,3.33333333 m 0.0,-10.0 m -0.0,3.33333333 l -2.88675135,-1.66666667 l -0.0,-3.33333333 m 2.88675135,1.66666667 " /><path stroke="#66a1ba" fille="none" stroke-dasharray="4 9" stroke-width="2" d="M 13.5,40 l -22,-30 m 7.5,0 l 22,30 m 7.5,0 l -22,-30 m 7.5,0 " /></g></svg>