<?xml version="1.0" encoding="UTF-8" standalone="no"?> <!DOCTYPE svg PUBLIC "-//W3C//DTD SVG 1.1//EN" "http://www.w3.org/Graphics/SVG/1.1/DTD/svg11.dtd"> <svg xmlns="http://www.w3.org/2000/svg" version="1.1" width="50" height="50" viewBox="-25 -25 50 50"> <g transform="translate(10,9),scale(0.7)"> <circle r="5.5" cx="0" cy="0" fill="#00d700" /> <path style="fill:none; stroke:#00d700; stroke-width:3; stroke-linecap:round;" d="M 4,0 C 4,3.7 1.9,7.1 -1,9.2" /></g> <g transform="translate(-10,9),scale(0.7)"> <circle r="5.5" cx="0" cy="0" fill="#00d700" /> <path style="fill:none; stroke:#00d700; stroke-width:3; stroke-linecap:round;" d="M 4,0 C 4,3.7 1.9,7.1 -1,9.2" /></g> <g transform="translate(0,-9),scale(0.7)"> <circle r="5.5" cx="0" cy="0" fill="#00d700" /> <path style="fill:none; stroke:#00d700; stroke-width:3; stroke-linecap:round;" d="M 4,0 C 4,3.7 1.9,7.1 -1,9.2" /></g> <g><path d="M 0,9 m -20,2 v -2 a 10,10 0 0 1 20,0 a10,10 0 0,0 20,0 v-2" fill="none" stroke="#ed1c24" stroke-linecap="round" stroke-width="3" /> </g></svg> 