<?xml version="1.0" encoding="UTF-8" standalone="no"?> <!DOCTYPE svg PUBLIC "-//W3C//DTD SVG 1.1//EN" "http://www.w3.org/Graphics/SVG/1.1/DTD/svg11.dtd"> <svg xmlns="http://www.w3.org/2000/svg" version="1.1" width="128" height="100" viewBox="-64 -50 128 100"><g stroke-width="3"><g stroke="#f6bc68"><path fill="none" d="M 17.4069956,-2.41780574 A 18,18 0 1 0 -5.26007294,10.21428571 M 24.0,-7.0 L 38.0,-7.0 M -16.97056274847714,9.970562748477139 L -26.8700576850888,19.87005768508881 M -24.0,-7.0 L -38.0,-7.0 M -16.97056274847714,-23.97056274847714 L -26.87005768508881,-33.870057685088796 M 0.0,-31.0 L -1e-14,-45.0 M 16.97056274847714,-23.97056274847714 L 26.8700576850888,-33.87005768508881 " /></g><path stroke="#828487" stroke-width="1.8" fill="none" d="M 0,33 a 12,12 0 1 1 2.92816105,-23.63726226 a 14.4,14.4 0 0 1 25.92035627,-5.69450347 a 9.75,9.75 0 0 1 10.15148268,5.93176573 a 12,12 0 0 1 -3.7469988,23.4 z " /></g></svg>