<?xml version="1.0" encoding="UTF-8" standalone="no"?> <!DOCTYPE svg PUBLIC "-//W3C//DTD SVG 1.1//EN" "http://www.w3.org/Graphics/SVG/1.1/DTD/svg11.dtd"> <svg xmlns="http://www.w3.org/2000/svg" version="1.1" width="128" height="100" viewBox="-64 -50 128 100"><g stroke-width="3"><g stroke="#f6bc68"><path fill="none" d="M -18.00252351,-17.73419552 A 14,14 0 1 0 -39.25615559,-6.02718888 M -45.4350288425444,-4.5649711574556004 L -53.21320343559642,3.21320343559643 M -51.0,-18.0 L -62.0,-18.0 M -45.43502884254441,-31.435028842544398 L -53.21320343559643,-39.21320343559642 M -32.0,-37.0 L -32.00000000000001,-48.0 M -18.564971157455602,-31.435028842544412 L -10.78679656440358,-39.21320343559643 " /></g><path stroke="#828487" fill="none" d="M -25,28 a 20,20 0 1 1 4.88026841,-39.3954371 a 24,24 0 0 1 43.20059379,-9.49083912 a 16.25,16.25 0 0 1 16.9191378,9.88627622 a 20,20 0 0 1 -6.244998,39z" /></g></svg>