<?xml version="1.0" encoding="UTF-8" standalone="no"?> <!DOCTYPE svg PUBLIC "-//W3C//DTD SVG 1.1//EN" "http://www.w3.org/Graphics/SVG/1.1/DTD/svg11.dtd"> <svg xmlns="http://www.w3.org/2000/svg" version="1.1" width="128" height="100" viewBox="-64 -50 128 100"><g stroke-width="3"><path stroke="#66a1ba" stroke-width="6.0" stroke-linecap="round" fill="none" d="M 0,-40 l 0.0,80.0 m -34.64101615,-60.0 l 69.2820323,40.0 m -69.2820323,-0.0 l 69.2820323,-40.0 m -34.64101615,-20.0 m 11.54700538,6.66666667 l -11.54700538,6.66666667 l -11.54700538,-6.66666667 m 11.54700538,-6.66666667 m -34.64101615,20.0 m 11.54700538,-6.66666667 l -0.0,13.33333333 l -11.54700538,6.66666667 m 0.0,-13.33333333 m -0.0,40.0 m 0.0,-13.33333333 l 11.54700538,6.66666667 l 0.0,13.33333333 m -11.54700538,-6.66666667 m 34.64101615,20.0 m -11.54700538,-6.66666667 l 11.54700538,-6.66666667 l 11.54700538,6.66666667 m -11.54700538,6.66666667 m 34.64101615,-20.0 m -11.54700538,6.66666667 l 0.0,-13.33333333 l 11.54700538,-6.66666667 m -0.0,13.33333333 m 0.0,-40.0 m -0.0,13.33333333 l -11.54700538,-6.66666667 l -0.0,-13.33333333 m 11.54700538,6.66666667 " /></g></svg>